<?xml version="1.0" encoding="UTF-8"?>
<svg id="Camada_1" data-name="Camada 1" xmlns="http://www.w3.org/2000/svg" viewBox="0 0 425.2 81.42">
  <g>
    <path d="M20.44,25.05c0-3.48,0-4.12-.05-4.86-.05-.78-.23-1.15-1-1.31-.19-.05-.58-.07-.9-.07-.26,0-.39-.05-.39-.21s.16-.21.51-.21c1.23,0,2.69.07,3.18.07.79,0,2.55-.07,3.27-.07,1.46,0,3.02.14,4.27.98.65.44,1.58,1.6,1.58,3.14,0,1.69-.7,3.23-3.04,5.11,2.06,2.56,3.67,4.63,5.03,6.05,1.3,1.33,2.23,1.49,2.58,1.56.26.05.46.07.65.07s.28.07.28.18c0,.18-.16.23-.44.23h-2.27c-1.3,0-1.88-.11-2.48-.44-1-.53-1.88-1.6-3.18-3.37-.93-1.26-2-2.82-2.3-3.16-.12-.14-.26-.16-.42-.16l-1.95-.05c-.12,0-.19.05-.19.18v.32c0,2.13,0,3.94.12,4.9.07.66.21,1.17.9,1.26.35.05.86.09,1.14.09.19,0,.28.07.28.18,0,.16-.16.23-.46.23-1.35,0-3.06-.07-3.41-.07-.44,0-1.9.07-2.83.07-.3,0-.46-.07-.46-.23,0-.11.09-.18.37-.18.35,0,.63-.05.84-.09.46-.09.58-.6.67-1.26.12-.96.12-2.77.12-4.88v-4.03ZM23.18,26.86c0,.25.05.34.21.41.49.16,1.18.23,1.76.23.93,0,1.23-.09,1.65-.39.7-.5,1.37-1.56,1.37-3.44,0-3.25-2.18-4.19-3.55-4.19-.58,0-1,.02-1.23.09-.16.05-.21.14-.21.32v6.96Z"/>
    <path d="M37.77,25.05c0-3.48,0-4.12-.05-4.86-.05-.78-.23-1.15-1-1.31-.19-.05-.58-.07-.9-.07-.26,0-.39-.05-.39-.21s.16-.21.51-.21c1.07,0,2.13.07,3.34.07.74,0,5.36,0,5.8-.02.44-.05.81-.09,1-.14.12-.02.26-.09.37-.09s.14.09.14.21c0,.16-.12.44-.19,1.49-.02.23-.07,1.24-.12,1.51-.02.11-.07.25-.23.25s-.21-.14-.21-.41c0-.09-.02-.46-.14-.73-.16-.41-.39-.69-1.55-.82-.39-.05-2.83-.09-3.29-.09-.12,0-.16.07-.16.23v5.79c0,.16.02.25.16.25.51,0,3.18,0,3.71-.05.56-.05.9-.11,1.11-.34.16-.18.26-.3.37-.3.09,0,.16.05.16.18s-.09.5-.19,1.67c-.02.46-.09,1.37-.09,1.53,0,.18,0,.44-.21.44-.16,0-.21-.25-.21-.37-.02-.23-.02-.37-.09-.66-.12-.46-.44-.8-1.3-.89-.44-.05-2.74-.07-3.29-.07-.12,0-.14.09-.14.23v1.81c0,.78-.02,2.89,0,3.55.05,1.58.42,1.92,2.78,1.92.6,0,1.58,0,2.18-.28.6-.27.88-.76,1.04-1.69.05-.25.09-.34.26-.34.19,0,.19.18.19.41,0,.53-.19,2.08-.3,2.54-.16.6-.37.6-1.25.6-2.06,0-4.11-.14-6.43-.14-.93,0-1.88.07-2.92.07-.3,0-.46-.07-.46-.23,0-.11.09-.18.37-.18.35,0,.63-.05.84-.09.46-.09.58-.6.67-1.26.12-.96.12-2.77.12-4.88v-4.03Z"/>
    <path d="M59.72,34.39c2.37,0,3.27-.57,3.64-1.26.21-.37.35-.78.42-1.1.05-.23.09-.37.23-.37.19,0,.23.16.23.71,0,.73-.3,2.22-.46,2.79-.12.41-.28.6-.7.6-3.87,0-7.77-.11-12.46-.11-.26,0-.39-.07-.39-.23s.07-.28.35-.69c3.27-5.04,6.71-10.21,9.81-15.05h-4.55c-1.18,0-2.6.07-3.34.48-.77.41-1.18,1.26-1.25,1.79-.05.32-.14.41-.28.41-.16,0-.19-.11-.19-.39,0-.53.35-2.61.46-3.3.05-.32.14-.44.28-.44.21,0,.35.14.93.16,2.2.09,3.32.07,4.27.07h7.08c.23,0,.39.07.39.18,0,.14-.09.27-.19.44-3.2,5.13-6.73,10.38-10,15.3h5.71Z"/>
    <path d="M68.86,25.05c0-3.48,0-4.12-.05-4.86-.05-.78-.23-1.15-1-1.31-.19-.05-.58-.07-.9-.07-.26,0-.39-.05-.39-.21s.16-.21.51-.21c1.07,0,2.13.07,3.34.07.74,0,5.36,0,5.8-.02.44-.05.81-.09,1-.14.12-.02.26-.09.37-.09s.14.09.14.21c0,.16-.12.44-.19,1.49-.02.23-.07,1.24-.12,1.51-.02.11-.07.25-.23.25s-.21-.14-.21-.41c0-.09-.02-.46-.14-.73-.16-.41-.39-.69-1.55-.82-.39-.05-2.83-.09-3.29-.09-.12,0-.16.07-.16.23v5.79c0,.16.02.25.16.25.51,0,3.18,0,3.71-.05.56-.05.9-.11,1.11-.34.16-.18.26-.3.37-.3.09,0,.16.05.16.18s-.09.5-.19,1.67c-.02.46-.09,1.37-.09,1.53,0,.18,0,.44-.21.44-.16,0-.21-.25-.21-.37-.02-.23-.02-.37-.09-.66-.12-.46-.44-.8-1.3-.89-.44-.05-2.74-.07-3.29-.07-.12,0-.14.09-.14.23v1.81c0,.78-.02,2.89,0,3.55.05,1.58.42,1.92,2.78,1.92.6,0,1.58,0,2.18-.28.6-.27.88-.76,1.04-1.69.05-.25.09-.34.26-.34.19,0,.19.18.19.41,0,.53-.19,2.08-.3,2.54-.16.6-.37.6-1.25.6-2.06,0-4.11-.14-6.43-.14-.93,0-1.88.07-2.92.07-.3,0-.46-.07-.46-.23,0-.11.09-.18.37-.18.35,0,.63-.05.84-.09.46-.09.58-.6.67-1.26.12-.96.12-2.77.12-4.88v-4.03Z"/>
    <path d="M82.82,18.8c0-.46.07-.78.3-.78.26,0,.46.3.86.71.28.3,3.8,4.03,7.19,7.35,1.58,1.56,4.83,4.97,5.22,5.34l-.23-10.4c-.02-1.4-.23-1.83-.79-2.06-.35-.14-.9-.14-1.23-.14-.28,0-.37-.07-.37-.21,0-.18.26-.21.6-.21,1.21,0,2.32.07,2.81.07.26,0,1.14-.07,2.27-.07.3,0,.53.02.53.21,0,.14-.14.21-.42.21-.23,0-.42,0-.7.07-.65.18-.84.66-.86,1.95-.09,4.83-.16,9.62-.26,14.45,0,.5-.09.71-.3.71-.26,0-.53-.25-.79-.5-1.46-1.37-4.43-4.37-6.84-6.73-2.53-2.47-5.17-5.41-5.59-5.84l.26,9.69c.05,1.79.35,2.38.81,2.54.39.14.84.16,1.21.16.26,0,.39.05.39.18,0,.18-.21.23-.53.23-1.51,0-2.44-.07-2.88-.07-.21,0-1.3.07-2.51.07-.3,0-.51-.02-.51-.23,0-.14.14-.18.37-.18.3,0,.72-.02,1.04-.11.6-.18.7-.85.72-2.84.07-4.86.16-10.51.21-13.56Z"/>
    <path d="M105.16,25.05c0-3.48,0-4.12-.05-4.86-.05-.78-.23-1.15-1-1.31-.19-.05-.58-.07-.9-.07-.26,0-.39-.05-.39-.21s.16-.21.51-.21c1.23,0,2.69.07,3.34.07.72,0,2.18-.07,3.57-.07,2.9,0,6.78,0,9.3,2.61,1.16,1.19,2.25,3.09,2.25,5.82,0,2.89-1.23,5.08-2.53,6.39-1.07,1.08-3.48,2.7-7.77,2.7-.84,0-1.79-.07-2.67-.14-.88-.07-1.69-.14-2.27-.14-.26,0-.77,0-1.32.02-.53,0-1.14.05-1.6.05-.3,0-.46-.07-.46-.23,0-.11.09-.18.37-.18.35,0,.63-.05.84-.09.46-.09.58-.6.67-1.26.12-.96.12-2.77.12-4.88v-4.03ZM108.06,27.57c0,2.43.02,4.19.05,4.63.02.57.07,1.49.26,1.74.3.44,1.21.92,3.04.92,2.37,0,3.94-.46,5.34-1.65,1.48-1.26,1.95-3.34,1.95-5.7,0-2.91-1.23-4.79-2.23-5.73-2.13-2.02-4.78-2.29-6.59-2.29-.46,0-1.32.07-1.51.16-.21.09-.28.21-.28.46-.02.78-.02,2.77-.02,4.58v2.89Z"/>
    <path d="M126.76,25.05c0-3.48,0-4.12-.05-4.86-.05-.78-.23-1.15-1-1.31-.19-.05-.58-.07-.9-.07-.26,0-.39-.05-.39-.21s.16-.21.51-.21c1.07,0,2.13.07,3.34.07.74,0,5.36,0,5.8-.02.44-.05.81-.09,1-.14.12-.02.26-.09.37-.09s.14.09.14.21c0,.16-.12.44-.19,1.49-.02.23-.07,1.24-.12,1.51-.02.11-.07.25-.23.25s-.21-.14-.21-.41c0-.09-.02-.46-.14-.73-.16-.41-.39-.69-1.55-.82-.39-.05-2.83-.09-3.29-.09-.12,0-.16.07-.16.23v5.79c0,.16.02.25.16.25.51,0,3.18,0,3.71-.05.56-.05.9-.11,1.11-.34.16-.18.26-.3.37-.3.09,0,.16.05.16.18s-.09.5-.19,1.67c-.02.46-.09,1.37-.09,1.53,0,.18,0,.44-.21.44-.16,0-.21-.25-.21-.37-.02-.23-.02-.37-.09-.66-.12-.46-.44-.8-1.3-.89-.44-.05-2.74-.07-3.29-.07-.12,0-.14.09-.14.23v1.81c0,.78-.02,2.89,0,3.55.05,1.58.42,1.92,2.78,1.92.6,0,1.58,0,2.18-.28.6-.27.88-.76,1.04-1.69.05-.25.09-.34.26-.34.19,0,.19.18.19.41,0,.53-.19,2.08-.3,2.54-.16.6-.37.6-1.25.6-2.06,0-4.11-.14-6.43-.14-.93,0-1.88.07-2.92.07-.3,0-.46-.07-.46-.23,0-.11.09-.18.37-.18.35,0,.63-.05.84-.09.46-.09.58-.6.67-1.26.12-.96.12-2.77.12-4.88v-4.03Z"/>
    <path d="M149.77,29.74c-.12,0-.16.05-.21.18l-1.25,3.28c-.23.57-.35,1.12-.35,1.4,0,.41.21.71.93.71h.35c.28,0,.35.05.35.18,0,.18-.14.23-.39.23-.74,0-1.74-.07-2.46-.07-.26,0-1.53.07-2.74.07-.3,0-.44-.05-.44-.23,0-.14.14-.18.32-.18.21,0,.49-.02.67-.05,1.07-.14,1.51-.92,1.97-2.06l5.82-14.38c.28-.66.44-.92.65-.92.19,0,.35.21.58.73.56,1.26,4.27,10.6,5.75,14.08.88,2.06,1.55,2.38,2.04,2.5.35.07.7.09.97.09.19,0,.3.05.3.18,0,.18-.21.23-1.07.23s-2.69,0-4.55-.05c-.42-.02-.53-.05-.53-.18,0-.11.09-.18.32-.21.16-.05.32-.25.21-.53l-1.86-4.86c-.05-.11-.12-.16-.23-.16h-5.17ZM154.51,28.6c.12,0,.14-.07.12-.14l-2.09-5.66c-.07-.21-.16-.27-.26,0l-2.13,5.63c-.02.09,0,.16.09.16h4.27Z"/>
    <path d="M164.95,18.8c0-.46.07-.78.3-.78.26,0,.46.3.86.71.28.3,3.8,4.03,7.19,7.35,1.58,1.56,4.83,4.97,5.22,5.34l-.23-10.4c-.02-1.4-.23-1.83-.79-2.06-.35-.14-.9-.14-1.23-.14-.28,0-.37-.07-.37-.21,0-.18.26-.21.6-.21,1.21,0,2.32.07,2.81.07.26,0,1.14-.07,2.27-.07.3,0,.53.02.53.21,0,.14-.14.21-.42.21-.23,0-.42,0-.7.07-.65.18-.84.66-.86,1.95-.09,4.83-.16,9.62-.26,14.45,0,.5-.09.71-.3.71-.26,0-.53-.25-.79-.5-1.46-1.37-4.43-4.37-6.84-6.73-2.53-2.47-5.17-5.41-5.59-5.84l.26,9.69c.05,1.79.35,2.38.81,2.54.39.14.84.16,1.21.16.26,0,.39.05.39.18,0,.18-.21.23-.53.23-1.51,0-2.44-.07-2.88-.07-.21,0-1.3.07-2.51.07-.3,0-.51-.02-.51-.23,0-.14.14-.18.37-.18.3,0,.72-.02,1.04-.11.6-.18.7-.85.72-2.84.07-4.86.16-10.51.21-13.56Z"/>
    <path d="M187.29,25.05c0-3.48,0-4.12-.05-4.86-.05-.78-.23-1.15-1-1.31-.19-.05-.58-.07-.9-.07-.26,0-.39-.05-.39-.21s.16-.21.51-.21c1.23,0,2.69.07,3.34.07.72,0,2.18-.07,3.57-.07,2.9,0,6.78,0,9.3,2.61,1.16,1.19,2.25,3.09,2.25,5.82,0,2.89-1.23,5.08-2.53,6.39-1.07,1.08-3.48,2.7-7.77,2.7-.84,0-1.79-.07-2.67-.14-.88-.07-1.69-.14-2.27-.14-.26,0-.77,0-1.32.02-.53,0-1.14.05-1.6.05-.3,0-.46-.07-.46-.23,0-.11.09-.18.37-.18.35,0,.63-.05.84-.09.46-.09.58-.6.67-1.26.12-.96.12-2.77.12-4.88v-4.03ZM190.19,27.57c0,2.43.02,4.19.05,4.63.02.57.07,1.49.26,1.74.3.44,1.21.92,3.04.92,2.37,0,3.94-.46,5.34-1.65,1.48-1.26,1.95-3.34,1.95-5.7,0-2.91-1.23-4.79-2.23-5.73-2.13-2.02-4.78-2.29-6.59-2.29-.46,0-1.32.07-1.51.16-.21.09-.28.21-.28.46-.02.78-.02,2.77-.02,4.58v2.89Z"/>
    <path d="M208.89,25.05c0-3.48,0-4.12-.05-4.86-.05-.78-.23-1.15-1-1.31-.19-.05-.58-.07-.9-.07-.26,0-.39-.05-.39-.21s.16-.21.51-.21c1.23,0,2.69.07,3.18.07.79,0,2.55-.07,3.27-.07,1.46,0,3.02.14,4.27.98.65.44,1.58,1.6,1.58,3.14,0,1.69-.7,3.23-3.04,5.11,2.06,2.56,3.67,4.63,5.03,6.05,1.3,1.33,2.23,1.49,2.58,1.56.26.05.46.07.65.07s.28.07.28.18c0,.18-.16.23-.44.23h-2.27c-1.3,0-1.88-.11-2.48-.44-1-.53-1.88-1.6-3.18-3.37-.93-1.26-2-2.82-2.3-3.16-.12-.14-.26-.16-.42-.16l-1.95-.05c-.12,0-.19.05-.19.18v.32c0,2.13,0,3.94.12,4.9.07.66.21,1.17.9,1.26.35.05.86.09,1.14.09.19,0,.28.07.28.18,0,.16-.16.23-.46.23-1.35,0-3.06-.07-3.41-.07-.44,0-1.9.07-2.83.07-.3,0-.46-.07-.46-.23,0-.11.09-.18.37-.18.35,0,.63-.05.84-.09.46-.09.58-.6.67-1.26.12-.96.12-2.77.12-4.88v-4.03ZM211.62,26.86c0,.25.05.34.21.41.49.16,1.18.23,1.76.23.93,0,1.23-.09,1.65-.39.7-.5,1.37-1.56,1.37-3.44,0-3.25-2.18-4.19-3.55-4.19-.58,0-1,.02-1.23.09-.16.05-.21.14-.21.32v6.96Z"/>
    <path d="M228.35,29.74c-.12,0-.16.05-.21.18l-1.25,3.28c-.23.57-.35,1.12-.35,1.4,0,.41.21.71.93.71h.35c.28,0,.35.05.35.18,0,.18-.14.23-.39.23-.74,0-1.74-.07-2.46-.07-.26,0-1.53.07-2.74.07-.3,0-.44-.05-.44-.23,0-.14.14-.18.32-.18.21,0,.49-.02.67-.05,1.07-.14,1.51-.92,1.97-2.06l5.82-14.38c.28-.66.44-.92.65-.92.19,0,.35.21.58.73.56,1.26,4.27,10.6,5.75,14.09.88,2.06,1.55,2.38,2.04,2.5.35.07.7.09.97.09.19,0,.3.05.3.18,0,.18-.21.23-1.07.23s-2.69,0-4.55-.05c-.42-.02-.53-.05-.53-.18,0-.11.09-.18.32-.21.16-.05.32-.25.21-.53l-1.86-4.86c-.05-.11-.12-.16-.23-.16h-5.17ZM233.08,28.6c.12,0,.14-.07.12-.14l-2.09-5.66c-.07-.21-.16-.27-.26,0l-2.13,5.63c-.02.09,0,.16.09.16h4.27Z"/>
    <path d="M243.89,25.05c0-3.48,0-4.12-.05-4.86-.05-.78-.23-1.15-1-1.31-.19-.05-.58-.07-.9-.07-.26,0-.39-.05-.39-.21s.16-.21.51-.21c1.23,0,2.69.07,3.34.07.72,0,2.18-.07,3.57-.07,2.9,0,6.78,0,9.3,2.61,1.16,1.19,2.25,3.09,2.25,5.82,0,2.89-1.23,5.08-2.53,6.39-1.07,1.08-3.48,2.7-7.77,2.7-.84,0-1.79-.07-2.67-.14-.88-.07-1.69-.14-2.27-.14-.26,0-.77,0-1.32.02-.53,0-1.14.05-1.6.05-.3,0-.46-.07-.46-.23,0-.11.09-.18.37-.18.35,0,.63-.05.84-.09.46-.09.58-.6.67-1.26.12-.96.12-2.77.12-4.88v-4.03ZM246.79,27.57c0,2.43.02,4.19.05,4.63.02.57.07,1.49.26,1.74.3.44,1.21.92,3.04.92,2.37,0,3.94-.46,5.34-1.65,1.48-1.26,1.95-3.34,1.95-5.7,0-2.91-1.23-4.79-2.23-5.73-2.13-2.02-4.78-2.29-6.59-2.29-.46,0-1.32.07-1.51.16-.21.09-.28.21-.28.46-.02.78-.02,2.77-.02,4.58v2.89Z"/>
    <path d="M265.49,25.05c0-3.48,0-4.12-.05-4.86-.05-.78-.23-1.15-1-1.31-.19-.05-.58-.07-.9-.07-.26,0-.39-.05-.39-.21s.16-.21.51-.21c1.07,0,2.13.07,3.34.07.74,0,5.36,0,5.8-.02.44-.05.81-.09,1-.14.12-.02.26-.09.37-.09s.14.09.14.21c0,.16-.12.44-.19,1.49-.02.23-.07,1.24-.12,1.51-.02.11-.07.25-.23.25s-.21-.14-.21-.41c0-.09-.02-.46-.14-.73-.16-.41-.39-.69-1.55-.82-.39-.05-2.83-.09-3.29-.09-.12,0-.16.07-.16.23v5.79c0,.16.02.25.16.25.51,0,3.18,0,3.71-.05.56-.05.9-.11,1.11-.34.16-.18.26-.3.37-.3.09,0,.16.05.16.18s-.09.5-.19,1.67c-.02.46-.09,1.37-.09,1.53,0,.18,0,.44-.21.44-.16,0-.21-.25-.21-.37-.02-.23-.02-.37-.09-.66-.12-.46-.44-.8-1.3-.89-.44-.05-2.74-.07-3.29-.07-.12,0-.14.09-.14.23v1.81c0,.78-.02,2.89,0,3.55.05,1.58.42,1.92,2.78,1.92.6,0,1.58,0,2.18-.28.6-.27.88-.76,1.04-1.69.05-.25.09-.34.26-.34.19,0,.19.18.19.41,0,.53-.19,2.08-.3,2.54-.16.6-.37.6-1.25.6-2.06,0-4.11-.14-6.43-.14-.93,0-1.88.07-2.92.07-.3,0-.46-.07-.46-.23,0-.11.09-.18.37-.18.35,0,.63-.05.84-.09.46-.09.58-.6.67-1.26.12-.96.12-2.77.12-4.88v-4.03Z"/>
    <path d="M290.48,29.08c0,2.93,0,4.51.49,4.92.39.34,1,.5,2.81.5,1.23,0,2.13-.02,2.71-.64.28-.3.56-.94.6-1.37.02-.21.07-.34.26-.34.16,0,.19.11.19.39,0,.25-.16,1.97-.35,2.63-.14.5-.26.62-1.46.62-2.13,0-4.27-.14-6.75-.14-.93,0-1.88.07-2.92.07-.3,0-.46-.07-.46-.23,0-.11.09-.18.37-.18.35,0,.63-.05.84-.09.46-.09.58-.6.67-1.26.12-.96.12-2.77.12-4.88v-4.03c0-3.48,0-4.12-.05-4.86-.05-.78-.23-1.15-1-1.31-.19-.05-.46-.07-.77-.07-.26,0-.39-.05-.39-.21s.16-.21.51-.21c1.09,0,2.55.07,3.18.07.56,0,2.25-.07,3.16-.07.32,0,.49.05.49.21s-.14.21-.42.21c-.26,0-.63.02-.9.07-.63.11-.81.5-.86,1.31-.05.73-.05,1.37-.05,4.86v4.03Z"/>
    <path d="M304.56,29.74c-.12,0-.16.05-.21.18l-1.25,3.28c-.23.57-.35,1.12-.35,1.4,0,.41.21.71.93.71h.35c.28,0,.35.05.35.18,0,.18-.14.23-.39.23-.74,0-1.74-.07-2.46-.07-.26,0-1.53.07-2.74.07-.3,0-.44-.05-.44-.23,0-.14.14-.18.32-.18.21,0,.49-.02.67-.05,1.07-.14,1.51-.92,1.97-2.06l5.82-14.38c.28-.66.44-.92.65-.92.19,0,.35.21.58.73.56,1.26,4.27,10.6,5.75,14.09.88,2.06,1.55,2.38,2.04,2.5.35.07.7.09.97.09.19,0,.3.05.3.18,0,.18-.21.23-1.07.23s-2.69,0-4.55-.05c-.42-.02-.53-.05-.53-.18,0-.11.09-.18.32-.21.16-.05.32-.25.21-.53l-1.86-4.86c-.05-.11-.12-.16-.23-.16h-5.17ZM309.29,28.6c.12,0,.14-.07.12-.14l-2.09-5.66c-.07-.21-.16-.27-.26,0l-2.13,5.63c-.02.09,0,.16.09.16h4.27Z"/>
    <path d="M320.1,25.05c0-3.48,0-4.12-.05-4.86-.05-.78-.28-1.17-.79-1.28-.26-.07-.56-.09-.84-.09-.23,0-.37-.05-.37-.23,0-.14.19-.18.56-.18.88,0,2.34.07,3.02.07.58,0,1.95-.07,2.83-.07.3,0,.49.05.49.18,0,.18-.14.23-.37.23s-.42.02-.7.07c-.63.11-.81.5-.86,1.31-.05.73-.05,1.37-.05,4.86v4.03c0,2.22,0,4.03.09,5.02.07.62.23,1.03.93,1.12.32.05.84.09,1.18.09.26,0,.37.07.37.18,0,.16-.19.23-.44.23-1.53,0-2.99-.07-3.62-.07-.53,0-2,.07-2.92.07-.3,0-.46-.07-.46-.23,0-.11.09-.18.37-.18.35,0,.63-.05.84-.09.46-.09.6-.48.67-1.15.12-.96.12-2.77.12-4.99v-4.03Z"/>
    <path d="M330.45,18.8c0-.46.07-.78.3-.78.26,0,.46.3.86.71.28.3,3.8,4.03,7.19,7.35,1.58,1.56,4.83,4.97,5.22,5.34l-.23-10.4c-.02-1.4-.23-1.83-.79-2.06-.35-.14-.9-.14-1.23-.14-.28,0-.37-.07-.37-.21,0-.18.26-.21.6-.21,1.21,0,2.32.07,2.81.07.26,0,1.14-.07,2.27-.07.3,0,.53.02.53.21,0,.14-.14.21-.42.21-.23,0-.42,0-.7.07-.65.18-.84.66-.86,1.95-.09,4.83-.16,9.62-.26,14.45,0,.5-.09.71-.3.71-.26,0-.53-.25-.79-.5-1.46-1.37-4.43-4.37-6.84-6.73-2.53-2.47-5.17-5.41-5.59-5.84l.26,9.69c.05,1.79.35,2.38.81,2.54.39.14.84.16,1.21.16.26,0,.39.05.39.18,0,.18-.21.23-.53.23-1.51,0-2.44-.07-2.88-.07-.21,0-1.3.07-2.51.07-.3,0-.51-.02-.51-.23,0-.14.14-.18.37-.18.3,0,.72-.02,1.04-.11.6-.18.7-.85.72-2.84.07-4.86.16-10.51.21-13.56Z"/>
    <path d="M352.79,25.05c0-3.48,0-4.12-.05-4.86-.05-.78-.23-1.15-1-1.31-.19-.05-.58-.07-.9-.07-.26,0-.39-.05-.39-.21s.16-.21.51-.21c1.07,0,2.13.07,3.34.07.74,0,5.36,0,5.8-.02.44-.05.81-.09,1-.14.12-.02.26-.09.37-.09s.14.09.14.21c0,.16-.12.44-.19,1.49-.02.23-.07,1.24-.12,1.51-.02.11-.07.25-.23.25s-.21-.14-.21-.41c0-.09-.02-.46-.14-.73-.16-.41-.39-.69-1.55-.82-.39-.05-2.83-.09-3.29-.09-.12,0-.16.07-.16.23v5.79c0,.16.02.25.16.25.51,0,3.18,0,3.71-.05.56-.05.9-.11,1.11-.34.16-.18.26-.3.37-.3.09,0,.16.05.16.18s-.09.5-.19,1.67c-.02.46-.09,1.37-.09,1.53,0,.18,0,.44-.21.44-.16,0-.21-.25-.21-.37-.02-.23-.02-.37-.09-.66-.12-.46-.44-.8-1.3-.89-.44-.05-2.74-.07-3.29-.07-.12,0-.14.09-.14.23v1.81c0,.78-.02,2.89,0,3.55.05,1.58.42,1.92,2.78,1.92.6,0,1.58,0,2.18-.28.6-.27.88-.76,1.04-1.69.05-.25.09-.34.26-.34.19,0,.19.18.19.41,0,.53-.19,2.08-.3,2.54-.16.6-.37.6-1.25.6-2.06,0-4.11-.14-6.43-.14-.93,0-1.88.07-2.92.07-.3,0-.46-.07-.46-.23,0-.11.09-.18.37-.18.35,0,.63-.05.84-.09.46-.09.58-.6.67-1.26.12-.96.12-2.77.12-4.88v-4.03Z"/>
    <path d="M373.39,29.08c0,2.11,0,3.92.12,4.9.07.64.21,1.15.9,1.24.32.05.84.09,1.18.09.26,0,.37.07.37.18,0,.16-.19.23-.44.23-1.53,0-2.99-.07-3.64-.07-.53,0-2,.07-2.92.07-.3,0-.46-.07-.46-.23,0-.11.09-.18.37-.18.35,0,.63-.05.84-.09.46-.09.6-.6.67-1.26.12-.96.12-2.77.12-4.88v-9.39c-.88.02-2.32.07-3.46.09-1.35.05-1.9.16-2.25.66-.23.34-.35.62-.39.8-.05.18-.12.27-.26.27-.16,0-.21-.11-.21-.37,0-.37.44-2.45.49-2.63.07-.3.14-.44.28-.44.19,0,.42.23,1,.27.67.07,1.55.11,2.32.11h9.19c.74,0,1.25-.07,1.6-.11.35-.07.53-.11.63-.11.16,0,.19.14.19.48,0,.48-.07,2.06-.07,2.66-.02.23-.07.37-.21.37-.19,0-.23-.11-.26-.46,0-.07-.02-.18-.02-.25-.05-.6-.67-1.24-2.74-1.28-.6-.02-1.55-.05-2.92-.07v9.39Z"/>
    <path d="M390.98,29.08c0,2.11,0,3.92.12,4.9.07.64.21,1.15.9,1.24.32.05.84.09,1.18.09.26,0,.37.07.37.18,0,.16-.19.23-.44.23-1.53,0-2.99-.07-3.64-.07-.53,0-2,.07-2.92.07-.3,0-.46-.07-.46-.23,0-.11.09-.18.37-.18.35,0,.63-.05.84-.09.46-.09.6-.6.67-1.26.12-.96.12-2.77.12-4.88v-9.39c-.88.02-2.32.07-3.46.09-1.35.05-1.9.16-2.25.66-.23.34-.35.62-.39.8-.05.18-.12.27-.26.27-.16,0-.21-.11-.21-.37,0-.37.44-2.45.49-2.63.07-.3.14-.44.28-.44.19,0,.42.23,1,.27.67.07,1.55.11,2.32.11h9.19c.74,0,1.25-.07,1.6-.11.35-.07.53-.11.63-.11.16,0,.19.14.19.48,0,.48-.07,2.06-.07,2.66-.02.23-.07.37-.21.37-.19,0-.23-.11-.26-.46,0-.07-.02-.18-.02-.25-.05-.6-.67-1.24-2.74-1.28-.6-.02-1.55-.05-2.92-.07v9.39Z"/>
    <path d="M401.65,25.05c0-3.48,0-4.12-.05-4.86-.05-.78-.28-1.17-.79-1.28-.26-.07-.56-.09-.84-.09-.23,0-.37-.05-.37-.23,0-.14.19-.18.56-.18.88,0,2.34.07,3.02.07.58,0,1.95-.07,2.83-.07.3,0,.49.05.49.18,0,.18-.14.23-.37.23s-.42.02-.7.07c-.63.11-.81.5-.86,1.31-.05.73-.05,1.37-.05,4.86v4.03c0,2.22,0,4.03.09,5.02.07.62.23,1.03.93,1.12.32.05.84.09,1.18.09.26,0,.37.07.37.18,0,.16-.19.23-.44.23-1.53,0-2.99-.07-3.62-.07-.53,0-2,.07-2.92.07-.3,0-.46-.07-.46-.23,0-.11.09-.18.37-.18.35,0,.63-.05.84-.09.46-.09.6-.48.67-1.15.12-.96.12-2.77.12-4.99v-4.03Z"/>
  </g>
  <g>
    <path d="M142.03,59.21c-.08,0-.11.03-.14.12l-.82,2.16c-.15.38-.23.74-.23.92,0,.27.14.47.6.47h.23c.18,0,.23.03.23.12,0,.12-.09.15-.26.15-.48,0-1.13-.05-1.6-.05-.17,0-1,.05-1.78.05-.2,0-.29-.03-.29-.15,0-.09.09-.12.21-.12.14,0,.32-.01.44-.03.69-.09.98-.6,1.28-1.36l3.79-9.48c.18-.44.29-.6.42-.6.12,0,.23.14.38.48.36.83,2.78,6.99,3.74,9.29.57,1.36,1.01,1.57,1.33,1.65.23.05.45.06.63.06.12,0,.2.03.2.12,0,.12-.14.15-.69.15s-1.75,0-2.96-.03c-.27-.02-.35-.03-.35-.12,0-.08.06-.12.21-.14.11-.03.21-.17.14-.35l-1.21-3.2c-.03-.08-.08-.11-.15-.11h-3.37ZM145.11,58.45c.08,0,.09-.05.08-.09l-1.36-3.73c-.05-.14-.11-.18-.17,0l-1.39,3.71c-.02.06,0,.11.06.11h2.78Z"/>
    <path d="M156.83,56.11c0-2.3,0-2.72-.03-3.2-.03-.51-.15-.75-.65-.86-.12-.03-.38-.05-.59-.05-.17,0-.26-.03-.26-.14s.11-.14.33-.14c.8,0,1.75.05,2.17.05.47,0,1.42-.05,2.33-.05,1.89,0,4.41,0,6.06,1.72.76.78,1.46,2.04,1.46,3.83,0,1.9-.8,3.35-1.65,4.21-.69.71-2.27,1.78-5.06,1.78-.54,0-1.16-.05-1.74-.09-.57-.05-1.1-.09-1.48-.09-.17,0-.5,0-.86.02-.35,0-.74.03-1.04.03-.2,0-.3-.05-.3-.15,0-.08.06-.12.24-.12.23,0,.41-.03.54-.06.3-.06.38-.39.44-.83.08-.63.08-1.83.08-3.22v-2.66ZM158.72,57.77c0,1.6.01,2.76.03,3.05.01.38.05.98.17,1.15.2.29.79.6,1.98.6,1.54,0,2.57-.3,3.47-1.09.97-.83,1.27-2.2,1.27-3.76,0-1.92-.8-3.16-1.45-3.78-1.39-1.33-3.11-1.51-4.29-1.51-.3,0-.86.05-.98.11-.14.06-.18.14-.18.3-.01.51-.01,1.83-.01,3.02v1.9Z"/>
    <path d="M174.4,53.21c-.35-.83-.6-1-1.15-1.15-.23-.06-.47-.06-.59-.06-.14,0-.18-.05-.18-.14,0-.12.17-.14.39-.14.8,0,1.66.05,2.19.05.38,0,1.1-.05,1.86-.05.18,0,.35.03.35.14s-.09.14-.23.14c-.24,0-.47.01-.59.11-.11.08-.15.18-.15.32,0,.2.14.62.35,1.16.83,2.17,1.84,4.85,2.63,6.93.65-1.66,2.64-6.6,3.01-7.6.08-.2.14-.42.14-.56,0-.12-.06-.24-.2-.29-.18-.06-.41-.08-.6-.08-.14,0-.26-.02-.26-.12,0-.12.14-.15.42-.15.76,0,1.39.05,1.59.05.26,0,.97-.05,1.42-.05.2,0,.32.03.32.14s-.09.14-.24.14-.47,0-.74.18c-.2.14-.42.39-.83,1.36-.59,1.42-1,2.23-1.81,4.09-.97,2.2-1.68,3.85-2.01,4.61-.39.88-.48,1.12-.69,1.12-.2,0-.29-.21-.57-.92l-3.81-9.23Z"/>
    <path d="M189.91,57.44c0-2.58,1.71-5.92,6.24-5.92,3.76,0,6.1,2.19,6.1,5.65s-2.42,6.19-6.25,6.19c-4.33,0-6.09-3.25-6.09-5.92ZM200.13,57.73c0-3.38-1.95-5.48-4.42-5.48-1.74,0-3.71.97-3.71,4.73,0,3.14,1.74,5.63,4.64,5.63,1.06,0,3.5-.51,3.5-4.88Z"/>
    <path d="M219.7,62.14c0,.41-.02.44-.2.54-.98.51-2.46.68-3.64.68-3.7,0-6.98-1.75-6.98-5.92,0-2.42,1.25-4.11,2.63-4.94,1.45-.88,2.79-.98,4.06-.98,1.04,0,2.37.18,2.67.24.32.06.85.15,1.19.17.18.01.21.08.21.18,0,.17-.11.59-.11,2.48,0,.24-.05.32-.17.32-.11,0-.14-.08-.15-.2-.05-.35-.12-.83-.51-1.25-.45-.48-1.66-1.18-3.37-1.18-.83,0-1.93.06-2.99.94-.85.71-1.39,1.84-1.39,3.7,0,3.25,2.07,5.68,5.25,5.68.39,0,.92,0,1.28-.17.23-.11.29-.3.29-.56v-1.42c0-.75,0-1.33-.02-1.78-.01-.51-.15-.76-.65-.86-.12-.03-.38-.05-.59-.05-.14,0-.23-.03-.23-.12,0-.12.11-.15.32-.15.78,0,1.74.05,2.19.05s1.27-.05,1.77-.05c.2,0,.3.03.3.15,0,.09-.09.12-.2.12-.12,0-.23.01-.41.05-.41.08-.56.33-.57.86-.01.45-.01,1.06-.01,1.81v1.66Z"/>
    <path d="M229.66,59.21c-.08,0-.11.03-.14.12l-.82,2.16c-.15.38-.23.74-.23.92,0,.27.14.47.6.47h.23c.18,0,.23.03.23.12,0,.12-.09.15-.26.15-.48,0-1.13-.05-1.6-.05-.17,0-1,.05-1.78.05-.2,0-.29-.03-.29-.15,0-.09.09-.12.21-.12.14,0,.32-.01.44-.03.69-.09.98-.6,1.28-1.36l3.79-9.48c.18-.44.29-.6.42-.6.12,0,.23.14.38.48.36.83,2.78,6.99,3.74,9.29.57,1.36,1.01,1.57,1.33,1.65.23.05.45.06.63.06.12,0,.2.03.2.12,0,.12-.14.15-.69.15s-1.75,0-2.96-.03c-.27-.02-.35-.03-.35-.12,0-.08.06-.12.21-.14.11-.03.21-.17.14-.35l-1.21-3.2c-.03-.08-.08-.11-.15-.11h-3.37ZM232.74,58.45c.08,0,.09-.05.08-.09l-1.36-3.73c-.05-.14-.11-.18-.17,0l-1.39,3.71c-.02.06,0,.11.06.11h2.78Z"/>
    <path d="M244.46,56.11c0-2.3,0-2.72-.03-3.2-.03-.51-.15-.75-.65-.86-.12-.03-.38-.05-.59-.05-.17,0-.26-.03-.26-.14s.11-.14.33-.14c.8,0,1.75.05,2.17.05.47,0,1.42-.05,2.33-.05,1.89,0,4.41,0,6.06,1.72.75.78,1.46,2.04,1.46,3.83,0,1.9-.8,3.35-1.65,4.21-.69.71-2.27,1.78-5.06,1.78-.54,0-1.16-.05-1.74-.09-.57-.05-1.1-.09-1.48-.09-.17,0-.5,0-.86.02-.35,0-.74.03-1.04.03-.2,0-.3-.05-.3-.15,0-.08.06-.12.24-.12.23,0,.41-.03.54-.06.3-.06.38-.39.44-.83.08-.63.08-1.83.08-3.22v-2.66ZM246.34,57.77c0,1.6.01,2.76.03,3.05.01.38.05.98.17,1.15.2.29.79.6,1.98.6,1.54,0,2.57-.3,3.47-1.09.97-.83,1.27-2.2,1.27-3.76,0-1.92-.8-3.16-1.45-3.78-1.39-1.33-3.11-1.51-4.29-1.51-.3,0-.86.05-.98.11-.14.06-.18.14-.18.3-.01.51-.01,1.83-.01,3.02v1.9Z"/>
    <path d="M261.92,57.44c0-2.58,1.71-5.92,6.24-5.92,3.76,0,6.1,2.19,6.1,5.65s-2.42,6.19-6.25,6.19c-4.33,0-6.09-3.25-6.09-5.92ZM272.15,57.73c0-3.38-1.95-5.48-4.42-5.48-1.74,0-3.71.97-3.71,4.73,0,3.14,1.74,5.63,4.64,5.63,1.06,0,3.5-.51,3.5-4.88Z"/>
    <path d="M281.19,62.97c-.24-.11-.29-.18-.29-.51,0-.83.06-1.74.08-1.98.01-.23.06-.39.18-.39.14,0,.15.14.15.26,0,.2.06.51.14.77.33,1.12,1.22,1.53,2.16,1.53,1.36,0,2.02-.92,2.02-1.72,0-.74-.23-1.43-1.48-2.42l-.69-.54c-1.66-1.3-2.23-2.36-2.23-3.58,0-1.66,1.39-2.85,3.49-2.85.57,0,1.03.06,1.39.12.26.05.45.09.62.14.14.03.21.08.21.18,0,.2-.06.63-.06,1.81,0,.33-.05.45-.17.45-.11,0-.15-.09-.15-.27,0-.14-.08-.6-.39-1-.23-.29-.66-.74-1.65-.74-1.12,0-1.8.65-1.8,1.56,0,.69.35,1.22,1.6,2.17l.42.32c1.83,1.37,2.48,2.42,2.48,3.85,0,.88-.33,1.92-1.42,2.63-.75.48-1.6.62-2.4.62-.88,0-1.56-.11-2.2-.39Z"/>
  </g>
  <g>
    <polygon points="302.6 55.8 407.1 57.49 302.6 59.17 302.6 55.8 302.6 55.8"/>
    <polygon points="122.6 59.19 18.1 57.49 122.6 55.79 122.6 59.19 122.6 59.19"/>
  </g>
</svg>