<svg width="120" height="77" viewBox="0 0 120 77" fill="none" xmlns="http://www.w3.org/2000/svg">
<path fill-rule="evenodd" clip-rule="evenodd" d="M47.6795 57.4359C47.8386 56.5906 47.9718 55.8896 48.1049 55.1849C49.999 55.1849 51.8394 55.1849 53.7261 55.1849C53.1952 57.9391 52.6681 60.6544 52.1483 63.3734C51.9264 64.5331 51.6988 65.691 51.512 66.8563C51.2938 68.2158 51.7118 68.5969 53.0232 68.2898C53.0861 68.275 53.1545 68.2769 53.3136 68.2621C52.8309 69.4755 52.3795 70.6445 51.8912 71.7987C51.8283 71.9503 51.5897 72.0706 51.4084 72.1205C50.2949 72.4312 49.1666 72.5071 48.0383 72.213C46.6862 71.8615 46.1609 70.8146 45.8853 69.5051C45.5764 69.8657 45.3101 70.195 45.0271 70.5076C43.3383 72.3795 41.2094 72.9399 38.8307 72.372C36.5315 71.8245 35.1073 70.2135 34.6745 67.9569C33.9031 63.9283 34.4913 60.1198 37.4453 57.0457C39.4041 55.0073 41.9233 54.3396 44.7071 54.8686C46.0925 55.135 47.0192 56.0468 47.6795 57.4359ZM46.5993 62.7704C46.5993 62.4745 46.6326 62.173 46.5938 61.8826C46.4495 60.8079 46.1517 59.8054 44.9771 59.4206C43.6916 59.0008 42.3857 59.391 41.5737 60.4953C40.3789 62.123 40.0755 63.9912 40.4251 65.937C40.7562 67.7904 42.038 68.5377 43.8192 68.0031C44.6849 67.7442 45.3119 67.1523 45.7448 66.3662C46.3588 65.2508 46.6437 64.0467 46.5993 62.7704Z" fill="#383432"/>
<path fill-rule="evenodd" clip-rule="evenodd" d="M69.8052 64.9999C69.9347 66.9088 70.6209 67.9187 71.9989 68.2868C73.8301 68.7769 75.5817 68.1961 76.5214 66.7626C76.6934 66.5 76.8118 66.2632 77.1965 66.3872C78.6189 66.8514 80.045 67.3046 81.5395 67.7818C80.7479 69.3226 79.7287 70.6248 78.2286 71.4127C75.136 73.0367 71.9027 73.2162 68.6899 71.84C65.4492 70.4527 64.0712 67.2195 64.4449 63.6681C64.6298 61.9276 65.0996 60.2795 66.0689 58.8035C67.31 56.9168 69.0357 55.6961 71.2165 55.1227C73.4306 54.54 75.6428 54.516 77.7828 55.3687C81.2066 56.73 82.6678 59.8097 82.2628 63.3333C82.2017 63.8698 82.087 64.4025 81.9872 64.9981C77.9068 64.9999 73.8578 64.9999 69.8052 64.9999ZM70.3157 61.726C72.5538 61.726 74.7494 61.726 76.9413 61.726C77.0356 60.6236 76.5177 59.6673 75.5669 59.2826C73.7561 58.5519 71.0112 59.2789 70.3157 61.726Z" fill="#383432"/>
<path fill-rule="evenodd" clip-rule="evenodd" d="M119.998 63.4742C120.022 65.1131 119.545 67.0589 118.394 68.7939C116.833 71.1485 114.56 72.3712 111.797 72.6449C109.586 72.8632 107.417 72.6042 105.497 71.3705C102.678 69.5578 101.67 66.8629 101.941 63.6315C102.134 61.3323 102.903 59.2311 104.522 57.5368C106.888 55.0638 109.86 54.3757 113.141 54.8289C115.422 55.1433 117.316 56.1939 118.637 58.1342C119.645 59.6121 120.031 61.2694 119.998 63.4742ZM114.344 63.1524C114.344 62.8565 114.36 62.5587 114.342 62.2646C114.24 60.6979 113.311 59.5234 111.956 59.2274C110.461 58.9037 109.189 59.5548 108.404 61.0012C107.635 62.4236 107.507 63.9589 107.679 65.5089C107.855 67.1126 108.774 68.1354 110.067 68.3999C111.375 68.6663 112.699 68.1114 113.419 66.9405C114.127 65.7826 114.353 64.4916 114.344 63.1524Z" fill="#383432"/>
<path fill-rule="evenodd" clip-rule="evenodd" d="M88.8714 72.0988C86.9755 72.0988 85.1591 72.0988 83.2429 72.0988C83.4075 71.2035 83.5573 70.3434 83.7238 69.487C85.124 62.2937 86.5242 55.1003 87.9447 47.9106C87.9891 47.6886 88.2444 47.3409 88.409 47.3372C90.1366 47.2947 91.8642 47.3113 93.6898 47.3113C92.0751 55.6108 90.4751 63.8381 88.8714 72.0988Z" fill="#383432"/>
<path fill-rule="evenodd" clip-rule="evenodd" d="M97.9036 72.0936C96.0317 72.0936 94.1931 72.0936 92.2695 72.0936C92.4859 70.9468 92.6912 69.8389 92.9058 68.7346C94.2542 61.8076 95.6155 54.8843 96.9418 47.9517C97.0416 47.4227 97.234 47.2895 97.7334 47.2969C99.3685 47.3228 101.005 47.3062 102.724 47.3062C101.107 55.6204 99.5072 63.8478 97.9036 72.0936Z" fill="#383432"/>
<path fill-rule="evenodd" clip-rule="evenodd" d="M63.5365 55.2008C62.4415 60.8553 61.3576 66.4653 60.2663 72.0957C58.3981 72.0957 56.5614 72.0957 54.6248 72.0957C55.7161 66.4487 56.7982 60.8479 57.8876 55.2008C59.7502 55.2008 61.6073 55.2008 63.5365 55.2008Z" fill="#383432"/>
<path fill-rule="evenodd" clip-rule="evenodd" d="M65.2458 47.3423C64.9073 49.1032 64.5966 50.7771 64.2525 52.4418C64.2211 52.5953 63.9695 52.8099 63.816 52.8117C62.0847 52.8376 60.3534 52.8284 58.537 52.8284C58.7941 51.5188 59.0346 50.2611 59.288 49.007C59.3953 48.4743 59.362 47.7288 59.6949 47.4773C60.0649 47.1961 60.777 47.3515 61.3393 47.346C62.6137 47.3349 63.8881 47.3423 65.2458 47.3423Z" fill="#383432"/>
<path d="M118.546 40.5711L118.442 40.2881C117.061 36.5407 115.198 32.6897 112.745 28.515C110.049 23.9241 107.03 19.6772 103.769 15.8909C100.454 12.0418 96.5718 8.52185 92.2288 5.4255C85.1057 0.348145 77.8864 -0.0143903 75.8296 0.000407055C75.6169 0.00225673 75.4023 0.00965542 75.1896 0.0170541L75.1249 0.0189038C54.3808 0.755073 32.7285 17.4946 10.7674 49.7751C9.33756 51.8763 4.79291 58.9606 2.72128 63.7864C0.594155 68.7416 -0.519348 74.0853 0.237168 75.6964C0.414736 76.0737 0.668141 76.2162 0.851259 76.2698C1.19715 76.3715 1.57818 76.4196 1.99066 76.4196C5.59752 76.4196 11.5405 72.7073 16.2313 68.6677C20.7907 64.7408 25.278 58.7349 25.7737 58.0635L26.3471 57.2885C33.7144 47.3187 45.4062 31.4948 58.1634 20.3616C61.3744 17.9293 66.0115 15.2621 71.629 14.4334C74.4904 14.0098 77.2353 14.1597 79.786 14.8755C82.444 15.6227 84.917 17.0451 87.5639 19.3535C93.7918 24.7842 99.1558 29.647 103.963 34.2231C106.66 36.7904 109.02 39.1136 111.173 41.3239C112.633 42.8203 114.284 44.5165 116.088 45.9944L116.286 46.1571C116.94 46.6972 117.68 47.3076 118.522 47.6184C118.949 47.7756 119.304 47.759 119.572 47.5684C119.965 47.2891 120.003 46.7694 120 46.4013C119.972 44.4277 119.214 42.3801 118.546 40.5711Z" fill="#921820"/>
<path d="M53.8943 22.1939C42.5835 33.1514 32.2697 46.9203 25.5591 55.9597C23.3192 58.9765 20.578 62.5482 16.0907 66.414C9.12664 72.4107 4.03449 75.0224 2.02574 74.0809C1.21744 73.7036 1.6965 69.9821 4.35633 63.7838C6.40022 59.0209 10.3918 52.7838 11.8087 50.7011C21.2956 36.7545 30.8732 25.5788 40.2714 17.4846C51.954 7.42242 63.4922 1.65699 74.6217 1.36844C87.8043 1.02626 95.0384 8.62471 96.5847 9.95833C91.6535 7.34659 82.4495 6.64371 76.1477 8.06796C67.2323 10.0841 59.1658 17.087 53.8943 22.1939Z" fill="#C41718"/>
</svg>
