<svg xmlns="http://www.w3.org/2000/svg" width="298" height="34" viewBox="0 0 298 34" fill="none"><path d="M177.611 11.1989C180.682 11.1989 183.18 13.6939 183.18 16.7601C183.18 19.8262 180.682 22.3213 177.611 22.3213C174.54 22.3213 172.042 19.8262 172.042 16.7601C172.042 13.6939 174.54 11.1989 177.611 11.1989ZM177.611 8.19284C172.872 8.19284 169.032 12.0283 169.032 16.7601C169.032 21.4919 172.872 25.3273 177.611 25.3273C182.349 25.3273 186.19 21.4919 186.19 16.7601C186.19 12.0283 182.349 8.19284 177.611 8.19284Z" fill="white"></path><path d="M146.263 16.8284C146.263 12.0597 142.39 8.19284 137.615 8.19284C132.839 8.19284 128.967 12.0597 128.967 16.8284C128.967 21.5971 132.839 25.4639 137.615 25.4639C139.77 25.4639 141.738 24.6755 143.252 23.3734V25.0417H146.263V16.8284ZM137.615 22.4579C134.506 22.4579 131.977 19.9328 131.977 16.8284C131.977 13.724 134.506 11.1989 137.615 11.1989C140.724 11.1989 143.252 13.724 143.252 16.8284C143.252 19.9328 140.724 22.4579 137.615 22.4579Z" fill="white"></path><path d="M218.357 16.8284C218.357 12.0597 214.485 8.19284 209.709 8.19284C204.934 8.19284 201.061 12.0597 201.061 16.8284C201.061 21.5971 204.934 25.4639 209.709 25.4639C211.864 25.4639 213.832 24.6755 215.347 23.3734V25.0417H218.357V16.8284ZM209.709 22.4579C206.6 22.4579 204.072 19.9328 204.072 16.8284C204.072 13.724 206.6 11.1989 209.709 11.1989C212.818 11.1989 215.347 13.724 215.347 16.8284C215.347 19.9328 212.818 22.4579 209.709 22.4579Z" fill="white"></path><path d="M291.979 16.8284C291.979 12.0597 288.107 8.19284 283.332 8.19284C278.556 8.19284 274.684 12.0597 274.684 16.8284C274.684 21.5971 278.556 25.3273 283.332 25.3273C285.487 25.3273 287.454 24.5389 288.969 23.2367V25.0417H291.979V16.8284ZM283.332 22.4579C280.223 22.4579 277.694 19.9328 277.694 16.8284C277.694 13.724 280.223 11.1989 283.332 11.1989C286.44 11.1989 288.969 13.724 288.969 16.8284C288.969 19.9328 286.44 22.4579 283.332 22.4579Z" fill="white"></path><path d="M263.418 8.19417C258.454 8.12721 254.434 12.2387 254.661 17.2314C254.864 21.6899 258.506 25.1633 262.972 25.3273C265.255 25.412 267.347 24.6099 268.937 23.2435V26.9232C268.937 28.5301 267.633 29.8322 266.024 29.8322H261.541C260.635 29.8322 259.9 30.566 259.9 31.4705V32.8383H266.024C269.295 32.8383 271.947 30.1902 271.947 26.9232V16.9459C271.947 12.2031 268.166 8.25839 263.418 8.19553V8.19417ZM263.299 22.4579C260.191 22.4579 257.662 19.9328 257.662 16.8283C257.662 13.7239 260.191 11.1988 263.299 11.1988C266.408 11.1988 268.937 13.7239 268.937 16.8283C268.937 19.9328 266.408 22.4579 263.299 22.4579Z" fill="white"></path><path d="M244.76 18.08L248.94 16.894C248.94 16.894 248.94 16.8817 248.94 16.8762L244.759 18.08H244.76Z" fill="white"></path><path d="M243.304 22.4579C241.315 22.4579 239.564 21.4235 238.561 19.8658L244.76 18.0813L251.916 16.0509C251.513 11.5323 247.624 8.01518 242.952 8.20101C238.396 8.38137 234.729 12.1403 234.658 16.6931C234.584 21.5246 238.483 25.4653 243.304 25.4653C247.165 25.4653 250.436 22.9375 251.545 19.4477H249.197C248.667 19.4477 248.174 19.7073 247.862 20.135C246.837 21.5424 245.176 22.4592 243.304 22.4592V22.4579ZM237.667 16.8284C237.667 13.7239 240.195 11.1989 243.304 11.1989C245.369 11.1989 247.178 12.3138 248.159 13.9726L237.671 16.9923C237.669 16.9377 237.667 16.883 237.667 16.827V16.8284Z" fill="white"></path><path d="M77.0365 22.4579C75.047 22.4579 73.2969 21.4235 72.2939 19.8658L78.4924 18.0813L85.6487 16.0509C85.2451 11.5323 81.3563 8.01518 76.6848 8.20101C72.1283 8.38137 68.4612 12.1403 68.3901 16.6931C68.3162 21.5246 72.2159 25.4653 77.0365 25.4653C80.8979 25.4653 84.1682 22.9375 85.2779 19.4477H82.9299C82.399 19.4477 81.9064 19.7073 81.5944 20.135C80.5695 21.5424 78.9084 22.4592 77.0365 22.4592V22.4579ZM71.399 16.8284C71.399 13.7239 73.9277 11.1989 77.0365 11.1989C79.1013 11.1989 80.9102 12.3138 81.8913 13.9726L71.4031 16.9923C71.4017 16.9377 71.399 16.883 71.399 16.827V16.8284Z" fill="white"></path><path d="M111.035 8.46609L102.721 8.47429V9.29823C102.721 10.2014 103.456 10.9338 104.362 10.9338H109.982L103.166 21.0136C102.002 22.7352 103.239 25.054 105.321 25.054H113.846V24.2301C113.846 23.3269 113.111 22.5945 112.205 22.5945H106.339L113.189 12.512C114.359 10.7903 113.121 8.46473 111.034 8.46746L111.035 8.46609Z" fill="white"></path><path d="M96.9702 8.46609L88.6563 8.47429V9.29823C88.6563 10.2014 89.3911 10.9338 90.2969 10.9338H95.9166L89.101 21.0136C87.9365 22.7352 89.1735 25.054 91.2561 25.054H99.7807V24.2301C99.7807 23.3269 99.046 22.5945 98.1401 22.5945H92.2741L99.124 12.512C100.294 10.7903 99.0555 8.46473 96.9688 8.46746L96.9702 8.46609Z" fill="white"></path><path d="M120.206 8.46609H116.922V25.054H120.206V8.46609Z" fill="white"></path><path d="M118.564 4.91898C119.697 4.91898 120.616 4.00135 120.616 2.8694C120.616 1.73745 119.697 0.819824 118.564 0.819824C117.43 0.819824 116.511 1.73745 116.511 2.8694C116.511 4.00135 117.43 4.91898 118.564 4.91898Z" fill="white"></path><path d="M223.496 25.4639C224.823 25.4639 225.899 24.3897 225.899 23.0646C225.899 21.7394 224.823 20.6652 223.496 20.6652C222.169 20.6652 221.094 21.7394 221.094 23.0646C221.094 24.3897 222.169 25.4639 223.496 25.4639Z" fill="url(#paint0_linear_972_1215)"></path><path d="M59.3838 20.8852C59.2443 21.2022 58.7954 21.2022 58.6559 20.8852L53.4836 9.44579C53.2223 8.85142 52.6325 8.46609 51.9812 8.46609H49.7645L56.6417 23.7764C57.5516 25.8438 60.4908 25.8438 61.4007 23.7764L68.1958 8.46609H65.9791C65.3278 8.46609 64.7394 8.85005 64.4767 9.44579L59.3852 20.8852H59.3838Z" fill="white"></path><path d="M191.394 1.98399L188.926 0V25.0759L192.21 25.0554V3.68651C192.21 3.02518 191.91 2.39937 191.394 1.98399Z" fill="white"></path><path d="M157.647 8.19284C152.872 8.19284 148.999 12.0597 148.999 16.8284V33.6568L151.468 31.6728C151.984 31.2574 152.283 30.6316 152.283 29.9703V23.4622C153.757 24.6291 155.621 25.3273 157.647 25.3273C162.422 25.3273 166.295 21.5971 166.295 16.8284C166.295 12.0597 162.422 8.19284 157.647 8.19284ZM157.647 22.4579C154.538 22.4579 152.01 19.9328 152.01 16.8284C152.01 13.724 154.538 11.1989 157.647 11.1989C160.756 11.1989 163.285 13.724 163.285 16.8284C163.285 19.9328 160.756 22.4579 157.647 22.4579Z" fill="white"></path><path d="M125.415 1.98399L122.946 0V25.0759L126.23 25.0554V3.68651C126.23 3.02518 125.931 2.39937 125.415 1.98399Z" fill="white"></path><path d="M197.509 1.98399L195.041 0V25.0759L198.325 25.0554V3.68651C198.325 3.02518 198.025 2.39937 197.509 1.98399Z" fill="white"></path><path d="M231.104 1.98399L228.636 0V25.0759L231.92 25.0554V3.68651C231.92 3.02518 231.62 2.39937 231.104 1.98399Z" fill="white"></path><path d="M297.185 1.98399L294.716 0V25.0759L298 25.0554V3.68651C298 3.02518 297.7 2.39937 297.185 1.98399Z" fill="white"></path><path d="M35.2411 4.52546C34.6555 3.85183 33.8017 3.46651 32.8999 3.46651H29.8253L39.8784 15.0248L33.6635 22.104H23.2492L29.4641 15.0261L20.3319 4.52546C19.7463 3.85183 18.8924 3.46515 17.9893 3.46515H0L10.0544 15.0248L1.33138 25.0526H4.40736C5.31046 25.0526 6.16429 24.666 6.74993 23.9937L14.548 15.0261L7.81859 7.21997H18.2397L24.9691 15.0248L18.2671 22.7298C17.899 23.1534 17.8183 23.73 18.0564 24.2356C18.2945 24.7411 18.7953 25.054 19.3631 25.054H35.6544L44.3761 15.0261L35.2439 4.52683L35.2411 4.52546Z" fill="url(#paint1_linear_972_1215)"></path><defs><linearGradient id="paint0_linear_972_1215" x1="221.13" y1="22.6478" x2="225.863" y2="23.4836" gradientUnits="userSpaceOnUse"><stop stop-color="#ED3E2E"></stop><stop offset="0.05" stop-color="#EC452E"></stop><stop offset="0.25" stop-color="#EA5C2F"></stop><stop offset="0.47" stop-color="#E96D30"></stop><stop offset="0.71" stop-color="#E87730"></stop><stop offset="1" stop-color="#E87B31"></stop></linearGradient><linearGradient id="paint1_linear_972_1215" x1="-1.33001" y1="10.9885" x2="43.6826" y2="18.9367" gradientUnits="userSpaceOnUse"><stop stop-color="#ED3E2E"></stop><stop offset="0.36" stop-color="#EA592F"></stop><stop offset="0.76" stop-color="#E87230"></stop><stop offset="1" stop-color="#E87B31"></stop></linearGradient></defs></svg>