<svg xmlns="http://www.w3.org/2000/svg" width="196" height="23" viewBox="0 0 196 23" fill="none"><path d="M116.818 7.3658C118.837 7.3658 120.481 9.00682 120.481 11.0235C120.481 13.0402 118.837 14.6812 116.818 14.6812C114.798 14.6812 113.155 13.0402 113.155 11.0235C113.155 9.00682 114.798 7.3658 116.818 7.3658ZM116.818 5.38867C113.701 5.38867 111.175 7.91131 111.175 11.0235C111.175 14.1357 113.701 16.6583 116.818 16.6583C119.935 16.6583 122.461 14.1357 122.461 11.0235C122.461 7.91131 119.935 5.38867 116.818 5.38867Z" fill="white"></path><path d="M96.1996 11.0684C96.1996 7.93198 93.6527 5.38867 90.5118 5.38867C87.3709 5.38867 84.824 7.93198 84.824 11.0684C84.824 14.2049 87.3709 16.7482 90.5118 16.7482C91.9292 16.7482 93.2234 16.2296 94.2197 15.3732V16.4705H96.1996V11.0684ZM90.5118 14.7711C88.4671 14.7711 86.8039 13.1103 86.8039 11.0684C86.8039 9.02659 88.4671 7.3658 90.5118 7.3658C92.5565 7.3658 94.2197 9.02659 94.2197 11.0684C94.2197 13.1103 92.5565 14.7711 90.5118 14.7711Z" fill="white"></path><path d="M143.617 11.0684C143.617 7.93198 141.07 5.38867 137.929 5.38867C134.789 5.38867 132.242 7.93198 132.242 11.0684C132.242 14.2049 134.789 16.7482 137.929 16.7482C139.347 16.7482 140.641 16.2296 141.637 15.3732V16.4705H143.617V11.0684ZM137.929 14.7711C135.885 14.7711 134.222 13.1103 134.222 11.0684C134.222 9.02659 135.885 7.3658 137.929 7.3658C139.974 7.3658 141.637 9.02659 141.637 11.0684C141.637 13.1103 139.974 14.7711 137.929 14.7711Z" fill="white"></path><path d="M192.04 11.0684C192.04 7.93198 189.493 5.38867 186.352 5.38867C183.211 5.38867 180.665 7.93198 180.665 11.0684C180.665 14.2049 183.211 16.6583 186.352 16.6583C187.77 16.6583 189.064 16.1398 190.06 15.2833V16.4705H192.04V11.0684ZM186.352 14.7711C184.308 14.7711 182.644 13.1103 182.644 11.0684C182.644 9.02659 184.308 7.3658 186.352 7.3658C188.397 7.3658 190.06 9.02659 190.06 11.0684C190.06 13.1103 188.397 14.7711 186.352 14.7711Z" fill="white"></path><path d="M173.255 5.38945C169.99 5.34541 167.346 8.04959 167.495 11.3334C167.628 14.2659 170.024 16.5503 172.962 16.6582C174.463 16.7139 175.839 16.1864 176.885 15.2877V17.7079C176.885 18.7647 176.027 19.6212 174.969 19.6212H172.02C171.425 19.6212 170.941 20.1038 170.941 20.6987V21.5983H174.969C177.12 21.5983 178.865 19.8566 178.865 17.7079V11.1456C178.865 8.02622 176.378 5.43169 173.255 5.39035V5.38945ZM173.177 14.7709C171.132 14.7709 169.469 13.1101 169.469 11.0683C169.469 9.02647 171.132 7.36568 173.177 7.36568C175.222 7.36568 176.885 9.02647 176.885 11.0683C176.885 13.1101 175.222 14.7709 173.177 14.7709Z" fill="white"></path><path d="M160.983 11.8916L163.732 11.1115C163.732 11.1115 163.732 11.1034 163.732 11.0999L160.982 11.8916H160.983Z" fill="white"></path><path d="M160.025 14.771C158.717 14.771 157.566 14.0907 156.906 13.0662L160.983 11.8925L165.69 10.557C165.424 7.58505 162.867 5.27181 159.794 5.39403C156.797 5.51266 154.385 7.98497 154.339 10.9794C154.29 14.1572 156.855 16.7491 160.025 16.7491C162.565 16.7491 164.716 15.0865 165.446 12.7912H163.902C163.552 12.7912 163.228 12.9619 163.023 13.2432C162.349 14.1689 161.257 14.7719 160.025 14.7719V14.771ZM156.318 11.0684C156.318 9.02656 157.981 7.36577 160.025 7.36577C161.384 7.36577 162.573 8.09911 163.219 9.19012L156.32 11.1762C156.319 11.1403 156.318 11.1043 156.318 11.0675V11.0684Z" fill="white"></path><path d="M50.6683 14.771C49.3597 14.771 48.2087 14.0907 47.549 13.0662L51.6258 11.8925L56.3327 10.557C56.0672 7.58505 53.5095 5.27181 50.437 5.39403C47.4401 5.51266 45.0282 7.98497 44.9814 10.9794C44.9328 14.1572 47.4977 16.7491 50.6683 16.7491C53.208 16.7491 55.3589 15.0865 56.0888 12.7912H54.5444C54.1953 12.7912 53.8713 12.9619 53.6661 13.2432C52.992 14.1689 51.8994 14.7719 50.6683 14.7719V14.771ZM46.9604 11.0684C46.9604 9.02656 48.6235 7.36577 50.6683 7.36577C52.0263 7.36577 53.2161 8.09911 53.8614 9.19012L46.9631 11.1762C46.9622 11.1403 46.9604 11.1043 46.9604 11.0675V11.0684Z" fill="white"></path><path d="M73.0299 5.56836L67.5617 5.57375V6.11567C67.5617 6.7097 68.045 7.1914 68.6407 7.1914H72.3369L67.8542 13.8211C67.0883 14.9534 67.9019 16.4785 69.2716 16.4785H74.8784V15.9366C74.8784 15.3426 74.3951 14.8609 73.7994 14.8609H69.9412L74.4464 8.2294C75.2159 7.09704 74.4014 5.56746 73.029 5.56926L73.0299 5.56836Z" fill="white"></path><path d="M63.7791 5.56836L58.3109 5.57375V6.11567C58.3109 6.7097 58.7942 7.1914 59.3899 7.1914H63.0861L58.6034 13.8211C57.8375 14.9534 58.6511 16.4785 60.0208 16.4785H65.6276V15.9366C65.6276 15.3426 65.1443 14.8609 64.5486 14.8609H60.6904L65.1956 8.2294C65.9651 7.09704 65.1506 5.56746 63.7782 5.56926L63.7791 5.56836Z" fill="white"></path><path d="M79.0614 5.56836H76.9015V16.4785H79.0614V5.56836Z" fill="white"></path><path d="M77.9815 3.23539C78.7271 3.23539 79.3315 2.63185 79.3315 1.88735C79.3315 1.14285 78.7271 0.539307 77.9815 0.539307C77.236 0.539307 76.6316 1.14285 76.6316 1.88735C76.6316 2.63185 77.236 3.23539 77.9815 3.23539Z" fill="white"></path><path d="M146.998 16.7483C147.87 16.7483 148.578 16.0417 148.578 15.1701C148.578 14.2986 147.87 13.592 146.998 13.592C146.125 13.592 145.417 14.2986 145.417 15.1701C145.417 16.0417 146.125 16.7483 146.998 16.7483Z" fill="white"></path><path d="M39.0578 13.7366C38.966 13.9451 38.6708 13.9451 38.579 13.7366L35.1771 6.21273C35.0052 5.82179 34.6173 5.56836 34.1889 5.56836H32.731L37.2543 15.6382C37.8527 16.998 39.7859 16.998 40.3843 15.6382L44.8536 5.56836H43.3956C42.9673 5.56836 42.5803 5.82089 42.4075 6.21273L39.0587 13.7366H39.0578Z" fill="white"></path><path d="M125.883 1.3049L124.26 0V16.4929L126.42 16.4794V2.42468C126.42 1.98971 126.223 1.57811 125.883 1.3049Z" fill="white"></path><path d="M103.687 5.38867C100.546 5.38867 97.9996 7.93198 97.9996 11.0684V22.1368L99.6231 20.8319C99.9624 20.5587 100.159 20.147 100.159 19.7121V15.4316C101.129 16.1991 102.355 16.6583 103.687 16.6583C106.828 16.6583 109.375 14.2049 109.375 11.0684C109.375 7.93198 106.828 5.38867 103.687 5.38867ZM103.687 14.7711C101.643 14.7711 99.9795 13.1103 99.9795 11.0684C99.9795 9.02659 101.643 7.3658 103.687 7.3658C105.732 7.3658 107.395 9.02659 107.395 11.0684C107.395 13.1103 105.732 14.7711 103.687 14.7711Z" fill="white"></path><path d="M82.4876 1.3049L80.8641 0V16.4929L83.024 16.4794V2.42468C83.024 1.98971 82.8269 1.57811 82.4876 1.3049Z" fill="white"></path><path d="M129.905 1.3049L128.282 0V16.4929L130.442 16.4794V2.42468C130.442 1.98971 130.245 1.57811 129.905 1.3049Z" fill="white"></path><path d="M152.001 1.3049L150.378 0V16.4929L152.538 16.4794V2.42468C152.538 1.98971 152.341 1.57811 152.001 1.3049Z" fill="white"></path><path d="M195.464 1.3049L193.84 0V16.4929L196 16.4794V2.42468C196 1.98971 195.803 1.57811 195.464 1.3049Z" fill="white"></path><path d="M23.1787 2.97644C22.7935 2.53338 22.232 2.27995 21.6389 2.27995H19.6166L26.2287 9.88201L22.1411 14.5382H15.2914L19.3791 9.88291L13.3727 2.97644C12.9875 2.53338 12.4259 2.27905 11.8319 2.27905H0L6.61298 9.88201L0.875671 16.4775H2.8988C3.49278 16.4775 4.05437 16.2232 4.43955 15.781L9.56848 9.88291L5.14243 4.74867H11.9966L16.4227 9.88201L12.0146 14.9498C11.7725 15.2284 11.7194 15.6076 11.876 15.9401C12.0326 16.2726 12.362 16.4784 12.7355 16.4784H23.4505L29.1869 9.88291L23.1805 2.97734L23.1787 2.97644Z" fill="white"></path></svg>